<?xml version="1.0" encoding="utf-8"?>
<!DOCTYPE svg PUBLIC "-//W3C//DTD SVG 1.0//EN" "http://www.w3.org/TR/2001/REC-SVG-20010904/DTD/svg10.dtd">
<svg version="1.0" xmlns="http://www.w3.org/2000/svg" width="626px" height="585px" viewBox="0 0 626 585" preserveAspectRatio="xMidYMid meet">
 <g fill="#b90449">
  <path d="M331 565 c0 -1 1.4 -1.4 3.9 -1.1 0.7 0.2 1 -0.2 0.7 -0.7 -0.5 -0.9 9.1 -5.9 10.6 -5.4 0.4 0.1 0.8 -0.2 0.8 -0.7 0 -0.5 0.7 -1.2 1.6 -1.5 0.8 -0.3 1.2 -0.2 0.9 0.4 -0.3 0.6 -0.1 1 0.4 1 0.6 0 1.1 -0.6 1.1 -1.3 0 -1.4 8.6 -6.2 10.7 -6 0.7 0 1 -0.4 0.7 -0.9 -0.4 -0.6 0.3 -0.8 1.7 -0.3 1.5 0.4 1.9 0.3 1.1 -0.3 -0.8 -0.6 2.1 -2.9 9.9 -7.8 6.1 -3.8 11.5 -6.8 12.1 -6.6 0.5 0.1 0.6 -0.3 0.2 -0.9 -0.5 -0.9 -0.2 -1 1 -0.6 0.9 0.4 1.5 0.3 1.2 -0.2 -0.6 -0.9 5.1 -5.8 7.3 -6.3 0.7 -0.2 2.8 -1.8 4.7 -3.6 2 -1.8 4 -3 4.5 -2.6 0.5 0.3 0.8 0.1 0.7 -0.3 -0.4 -1.2 11.8 -11.4 12.6 -10.6 0.3 0.3 0.8 -0.1 1.2 -1 0.7 -2 23.6 -22.3 24.7 -21.9 0.5 0.1 0.6 -0.1 0.3 -0.6 -0.7 -1.2 6.8 -8.4 7.8 -7.5 0.4 0.5 0.6 0.3 0.4 -0.4 -0.2 -0.6 2.4 -4.2 5.8 -8 13.7 -15.3 32.4 -40.5 38 -50.8 0.6 -1.1 3.3 -6.3 6.2 -11.5 22 -40.9 32.4 -90.7 28.2 -135 -0.7 -7.4 -1.3 -14.2 -1.2 -15 0.1 -3.4 6.4 -19 7.4 -18.4 0.6 0.4 0.8 -0.1 0.4 -1.3 -0.4 -1.2 2 -7.1 6.8 -16.8 8.7 -17.6 11.9 -22.9 13.1 -21.8 0.4 0.4 0.5 0.3 0.2 -0.3 -0.6 -1 4.8 -10.4 5.9 -10.4 1.2 0 3.2 6.9 2.8 9.1 -0.5 1.9 -0.4 2.1 0.5 0.9 0.6 -0.9 1.1 -1 1.1 -0.3 0 0.6 0.3 2 0.6 3 0.5 1.5 0.4 1.6 -0.6 0.3 -1 -1.3 -1.1 -1.2 -0.6 0.3 0.3 1 0.6 2.5 0.6 3.3 0 0.8 0.4 1.4 1 1.4 0.5 0 0.7 -0.8 0.3 -1.7 -0.3 -1 -0.3 -1.5 0.1 -1.2 1.1 1.1 5.8 19 5.2 20.4 -0.3 0.8 0 1.5 0.6 1.7 0.6 0.2 1.1 3.1 1.2 6.6 0 3.4 0.3 5.4 0.7 4.5 0.6 -1.8 2.3 7.6 4 22.7 1.3 12 1.3 52.6 0 64.5 -1 8.2 -2.9 20.6 -4.7 29.3 -0.5 2.5 -0.9 3 -1.6 2 -0.6 -0.9 -0.7 -0.6 -0.3 0.9 0.9 3.2 -4.4 22.5 -10.9 39.4 -4.3 11.4 -11.8 26.9 -12.7 26.3 -0.5 -0.3 -0.9 0.5 -0.9 1.7 0 5.7 -28.4 49 -31.1 47.3 -0.5 -0.3 -0.6 0.1 -0.3 0.9 0.3 0.8 -2.5 4.5 -6.8 9.1 -4.1 4.2 -7.2 7.8 -7.1 8 0.7 0.7 -24 22.1 -25.3 22 -0.8 -0.1 -1.2 0.2 -0.9 0.6 0.7 1.1 -14.4 12.2 -15.6 11.5 -0.5 -0.4 -0.8 -0.1 -0.7 0.5 0.2 0.6 -1.5 2.1 -3.6 3.3 -2.2 1.2 -4.8 2.9 -5.7 3.7 -2.7 2.3 -14.3 8.5 -13.5 7.2 0.4 -0.7 0.2 -1.2 -0.3 -1.2 -0.6 0 -1.1 0.6 -1.1 1.4 0 0.7 -1.5 2.1 -3.3 2.9 -8.6 4.1 -16.8 7.6 -18.4 7.9 -1 0.2 -2 0.5 -2.3 0.8 -1 1 -7 2.8 -6.4 1.9 0.3 -0.5 0 -0.9 -0.5 -0.9 -0.6 0 -1.1 0.6 -1.1 1.3 0 1 -6.9 3.5 -14.5 5.2 -1.1 0.2 -4 0.9 -6.5 1.6 -2.5 0.6 -5.6 1.2 -7 1.3 -1.4 0.2 -3.2 0.6 -4 0.9 -2.6 1.1 -19.4 3.7 -30.1 4.7 -8 0.8 -10.5 0.7 -11.1 -0.3 -0.6 -0.9 -0.8 -0.9 -0.8 0.1 0 0.6 -0.4 1.2 -1 1.2 -0.5 0 -1 -0.4 -1 -1z"/>
  <path d="M195 544.2 c0 -0.4 -1.6 -0.7 -3.5 -0.7 -1.9 0.1 -3.5 -0.1 -3.5 -0.5 0 -0.3 -1.5 -0.7 -3.2 -0.7 -4.1 -0.1 -16.4 -4.2 -26.5 -8.8 -10.5 -4.9 -25.4 -13.5 -24.8 -14.5 0.2 -0.4 -0.8 -1 -2.3 -1.3 -2.9 -0.6 -18 -11.7 -28.3 -20.7 -15 -13.2 -29.3 -29.2 -40.1 -45 -12.7 -18.6 -25.7 -42.8 -24.2 -45.2 0.4 -0.6 0.3 -0.8 -0.3 -0.5 -0.7 0.4 -2.9 -4.1 -5.7 -11.8 -27.5 -74.7 -22.5 -162.7 13.1 -231.5 10.4 -20.3 34.9 -55 38.2 -54.3 0.6 0.2 1.1 -0.4 1.1 -1.3 0 -2 12 -14.5 13.2 -13.8 0.4 0.3 0.7 0.1 0.6 -0.4 -0.5 -1.6 18 -17.4 19.3 -16.6 0.7 0.4 0.9 0.3 0.6 -0.3 -1.1 -1.7 19.6 -16.8 21.4 -15.7 0.7 0.4 0.9 0.3 0.6 -0.4 -1.3 -1.9 23.9 -16.6 26.9 -15.6 1.3 0.4 1.5 0.3 0.7 -0.3 -0.9 -0.6 0.1 -1.6 3.5 -3.2 8.3 -4.1 11.4 -5.3 10.7 -4 -0.5 0.7 -0.3 1 0.6 0.7 0.8 -0.3 1.3 -1 1.2 -1.6 -0.4 -1.9 38.6 -15.8 41.3 -14.8 0.8 0.3 1.4 0.1 1.4 -0.5 0 -0.7 1.2 -0.8 3.3 -0.4 2 0.4 2.7 0.3 1.9 -0.3 -2.5 -1.7 38.2 -9.1 43.1 -7.8 1.2 0.3 2.7 0.1 3.3 -0.5 1.9 -1.6 40.6 -0.8 41.2 0.9 0.2 0.6 0.8 1.2 1.3 1.2 0.6 0 0.7 -0.4 0.4 -1 -0.4 -0.6 0.5 -1 1.9 -1 1.4 0 2.6 0.3 2.6 0.8 0 0.4 2.8 0.7 6.3 0.8 9 0.1 25.9 3.4 27.5 5.3 0.8 0.9 1.1 1 0.7 0.3 -0.8 -1.5 1.5 -1.6 5.2 0 1.5 0.6 3.4 1 4.2 0.9 0.7 -0.1 1 0.2 0.6 0.8 -0.3 0.6 0 0.8 0.9 0.5 2.2 -0.9 17.7 3.7 19.5 5.7 0.8 1.1 2 1.9 2.6 1.9 0.5 0 0.3 -0.5 -0.5 -1.1 -1.2 -0.9 -1.2 -1 0.3 -0.5 1 0.3 2.3 0.6 2.8 0.6 0.6 0 0.7 0.4 0.4 1 -0.3 0.5 0 0.7 0.8 0.4 1.7 -0.6 15.7 5 17.2 7 0.6 0.7 1.8 1.3 2.7 1.3 2.8 0 9.8 3.5 9.1 4.6 -0.3 0.6 -0.1 0.7 0.5 0.4 1.5 -1 4.2 0.3 4.2 1.9 0 0.8 0.9 1.3 2.3 1.2 2.5 -0.2 23 11.9 22.2 13.2 -0.3 0.5 0 1.2 0.6 1.6 0.8 0.4 0.9 0.3 0.5 -0.4 -1.3 -2.1 0.3 -1.3 7.6 4 10.8 7.6 15.8 11.9 15.2 12.9 -0.3 0.5 0.3 0.9 1.4 0.9 1.8 0 7.5 5.1 7.3 6.7 -0.1 0.4 0.3 0.8 0.7 0.8 0.4 0 2.6 1.5 4.7 3.4 2.2 1.8 3.4 3 2.6 2.6 -0.9 -0.5 -1.2 -0.3 -0.9 0.5 0.2 0.7 1.2 1.4 2.1 1.6 1.5 0.2 6.6 5.2 6.7 6.5 0 0.4 -3.2 3.2 -7.1 6.3 -3.9 3.2 -6.8 5.2 -6.3 4.5 0.4 -0.8 0.3 -1 -0.4 -0.5 -0.7 0.4 -1.2 1.3 -1.2 2 0 1.8 -6.5 6.7 -7.5 5.8 -0.5 -0.4 -0.5 -0.2 -0.2 0.4 0.7 1.2 -3.9 6 -7.5 7.8 -1.2 0.6 -2.4 2 -2.6 3.1 -0.4 2.1 -3 5.5 -4.2 5.5 -0.3 0 -4 -2.8 -8.1 -6.3 -8.4 -7.2 -21.8 -16.9 -29.9 -21.8 -3 -1.8 -5.7 -3.5 -6 -3.8 -1 -1.1 -17.6 -9 -25.5 -12.1 -9.1 -3.6 -25.4 -9 -27.2 -9 -0.7 0 -1.3 -0.3 -1.3 -0.7 0 -0.5 -1.9 -0.9 -4.2 -1 -2.3 -0.2 -4.4 -0.7 -4.7 -1.1 -0.3 -0.5 -1.9 -1 -3.6 -1 -1.6 -0.1 -9.1 -1 -16.5 -2.1 -25.8 -3.6 -66.6 -1 -86.8 5.5 -2.4 0.8 -4.7 1.2 -5.2 0.9 -0.5 -0.3 -1 -0.1 -1.2 0.3 -0.5 1.3 -13.9 5.3 -15.2 4.5 -0.6 -0.3 -0.8 -0.2 -0.4 0.2 0.9 1 -11.7 6.6 -14.9 6.7 -1.3 0 -2.1 0.3 -1.9 0.7 0.3 0.3 -2.6 2.2 -6.2 4.1 -7.9 4.1 -22.5 13.3 -26.5 16.6 -1.6 1.3 -3.7 2.4 -4.8 2.4 -1 0 -1.9 0.6 -1.9 1.4 0 0.7 -2.1 3.1 -4.7 5.2 -4.8 3.8 -25.9 24.9 -27.8 27.7 -0.5 0.8 -4.3 6.1 -8.4 11.7 -4.1 5.6 -10.3 15.3 -13.7 21.4 -3.5 6.1 -6.8 11.7 -7.4 12.4 -0.6 0.6 -0.8 1.2 -0.5 1.2 0.3 0 -0.2 1.7 -1.1 3.8 -11.9 27.8 -17.3 55.1 -17.4 88.2 -0.1 10.7 0.4 23.7 1 28.7 0.6 5.1 0.9 9.7 0.5 10.3 -0.3 0.5 -0.2 1 0.2 1 0.5 0 1.4 3.2 2.1 7.1 0.7 3.9 2.4 11.1 3.7 16.1 1.4 4.9 2.3 9.3 2 9.8 -0.4 0.6 -0.2 1 0.4 1 1.3 0 3.4 6.7 2.5 8.1 -0.4 0.7 -0.3 0.9 0.3 0.6 1.2 -0.8 3.7 5.9 2.7 7.4 -0.4 0.7 -0.3 0.9 0.3 0.6 1.3 -0.8 3.6 5 2.6 6.6 -0.3 0.5 -0.2 0.7 0.4 0.4 0.5 -0.3 2.8 3.3 5.1 8.1 2.4 4.8 3.5 7.8 2.6 6.7 -1.5 -1.8 -1.6 -1.8 -1 -0.2 0.3 1 0.6 2.1 0.6 2.3 0 0.2 0.6 0.4 1.4 0.4 1.4 0 9.3 12.7 8.8 14.2 -0.1 0.5 0.2 0.7 0.7 0.4 1 -0.6 5.8 6.3 5.3 7.7 -0.1 0.5 0.2 0.6 0.7 0.3 0.9 -0.6 6.1 6.3 6.1 8.2 0 0.7 0.3 1.1 0.8 1 1.1 -0.3 23.2 21.9 23.2 23.2 0 0.7 0.6 1 1.3 0.7 0.7 -0.3 3.1 1.1 5.3 3 2.1 1.9 3.3 3.2 2.7 2.8 -0.7 -0.3 -1.3 -0.2 -1.3 0.3 0 0.5 0.9 1.2 2 1.5 1.1 0.3 1.7 0.1 1.4 -0.4 -0.3 -0.6 1.7 0.4 4.5 2.1 2.8 1.8 4.9 3.6 4.6 4 -0.3 0.5 0 1.2 0.6 1.6 0.8 0.4 0.9 0.3 0.5 -0.4 -0.4 -0.7 -0.3 -1.2 0.3 -1.2 0.5 0 1.5 0.8 2 1.8 0.6 0.9 1.1 1.4 1.1 1 0 -0.4 5 1.7 11.2 4.7 6.1 3 13.1 6 15.5 6.7 2.3 0.7 4.3 1.8 4.3 2.4 0 0.6 1 1.4 2.3 1.8 3.3 0.9 4.4 0.7 2.7 -0.5 -1.2 -0.9 -1.1 -1 0.5 -0.4 4.1 1.4 22.7 4.4 31.4 5.1 8.5 0.6 9 0.8 8 2.6 -0.6 1.1 -1.3 1.7 -1.6 1.4 -0.3 -0.3 -1.6 1.7 -2.9 4.5 -1.5 3.2 -2.8 4.8 -3.5 4.3 -0.7 -0.4 -0.9 -0.3 -0.6 0.3 1 1.5 -9.9 12.7 -11.4 11.8 -0.7 -0.5 -1 -0.4 -0.5 0.3 0.8 1.3 -4.3 5.4 -5.7 4.5 -0.5 -0.3 -0.7 -0.1 -0.4 0.4 0.7 1.2 -1.5 2.8 -9.9 7.4 -3 1.7 -5.8 2.8 -6.3 2.4 -0.6 -0.3 -1.3 0.1 -1.8 0.9 -1 1.7 -9.8 4.3 -13.5 4 -1.6 -0.2 -2.8 0.2 -2.8 0.8 0 0.6 -1.2 0.8 -3 0.5 -1.6 -0.4 -3.2 -0.2 -3.5 0.3 -0.7 1.2 -5.5 1.3 -5.5 0.2z m118.8 -531.9 c-1 -0.2 -2.8 -0.2 -4 0 -1.3 0.2 -0.5 0.4 1.7 0.4 2.2 0.1 3.2 -0.1 2.3 -0.4z"/>
 </g>
 <g fill="#363635">
  <path d="M244.5 559.1 c0.6 -1.1 0.2 -1.3 -1.9 -0.9 -1.4 0.3 -2.9 0.1 -3.2 -0.4 -0.3 -0.5 -1.2 -0.4 -2 0.3 -1 0.8 -1.4 0.8 -1.4 0 0 -0.7 -1 -0.9 -2.7 -0.6 -1.6 0.3 0.5 -1 4.6 -3 4 -1.9 7.8 -3.2 8.5 -2.8 0.6 0.3 0.8 0.3 0.4 -0.2 -0.4 -0.4 2.7 -2.9 7 -5.6 7.7 -4.7 18.3 -13.5 22.9 -19 1.4 -1.6 3 -2.6 3.5 -2.2 0.7 0.3 0.8 0.1 0.4 -0.6 -0.4 -0.6 0.1 -2.3 1.2 -3.9 3.5 -4.8 7.8 -14.5 10 -22.2 1.7 -5.9 7.1 -34.5 7.2 -37.8 0 -0.4 0.5 0 1 0.8 0.8 1.1 0.9 0.9 0.5 -1.1 -1.3 -5.3 8.6 -33.5 16.9 -48.2 8.1 -14.5 23.6 -32 26.7 -30.1 0.8 0.4 0.9 0.3 0.5 -0.4 -1 -1.7 6.3 -5 15 -6.8 6.2 -1.3 8.7 -1.4 14.1 -0.4 8.2 1.4 16.9 4.6 17.7 6.5 0.3 0.8 1.2 1.2 1.9 0.9 1.4 -0.5 11.1 6.9 15.2 11.6 1.9 2.3 1.9 2.3 0.1 1.6 -1.9 -0.7 -1.9 -0.6 -0.2 1.3 1 1.1 2.2 1.8 2.6 1.6 1.2 -0.8 5.2 6.3 4.4 7.6 -0.4 0.7 -0.3 0.9 0.4 0.5 1.3 -0.8 4.4 5.8 6.2 13.2 2.6 10.9 0.9 35.3 -2.6 36.6 -0.7 0.3 -1.4 1.1 -1.4 1.8 0 0.9 0.3 0.8 1 -0.2 0.5 -0.8 1 -1 1 -0.4 0 1.8 -3.1 8.8 -4.2 9.5 -0.5 0.3 -0.9 0.9 -0.9 1.3 0.4 2.5 0 3.6 -1.1 3 -0.7 -0.4 -0.8 -0.3 -0.4 0.5 1 1.6 -8.2 16.3 -9.6 15.5 -0.7 -0.5 -0.8 -0.2 -0.3 0.6 0.5 0.8 0.1 1.8 -1.1 2.7 -1 0.8 -1.9 1.7 -1.9 2.1 0 0.4 -0.4 0.6 -1 0.4 -0.5 -0.2 -0.7 0 -0.3 0.4 1.1 1 -3.2 6.5 -4.4 5.8 -0.7 -0.4 -0.8 -0.2 -0.4 0.4 0.4 0.6 -0.2 1.7 -1.4 2.4 -1.1 0.7 -2 1.8 -2 2.4 0 1.4 -5.3 6.4 -6.8 6.4 -0.7 0 -1.2 0.6 -1.2 1.4 0 1.7 -15.7 14.6 -17.7 14.6 -0.7 0 -1.3 0.3 -1.3 0.8 0 0.9 -9 7 -11 7.4 -0.8 0.2 -1.9 0.8 -2.5 1.5 -1.7 2 -10.7 6.3 -13.1 6.3 -1.3 0 -2.4 0.4 -2.4 1 0 1.3 -5.8 4.2 -7 3.5 -0.6 -0.3 -1 -0.2 -1 0.3 0 1.4 -8.7 4.2 -10.5 3.5 -0.8 -0.3 -1.5 0 -1.5 0.7 0 0.7 -0.8 0.9 -2.1 0.5 -1.4 -0.5 -1.9 -0.3 -1.5 0.3 0.8 1.3 -2.2 2.3 -5.2 1.7 -1.2 -0.2 -2 0 -1.7 0.4 0.6 1 -6.1 2.5 -7.4 1.6 -0.6 -0.3 -1.2 -0.1 -1.6 0.4 -0.6 1 -5.6 1.9 -13 2.4 -2.2 0.2 -4.5 0.6 -5.1 1 -1.5 0.9 -20.7 0.3 -22.3 -0.7 -0.8 -0.5 -1.7 -0.3 -2.2 0.5 -0.5 0.8 -0.9 0.9 -0.9 0.4 0 -1.5 -5 -1.7 -6.8 -0.3 -1.3 1.1 -1.4 1.1 -0.7 -0.1z"/>
  <path d="M427.2 387.2 c-2 -2.2 -5.8 -5.7 -8.4 -7.9 -2.6 -2.3 -4.4 -4.4 -4 -4.8 0.4 -0.4 0.2 -0.5 -0.3 -0.4 -1.4 0.5 -10.5 -5.1 -10.5 -6.4 0 -0.6 -0.3 -0.8 -0.6 -0.5 -0.3 0.4 -3.3 -0.8 -6.7 -2.6 -5.1 -2.7 -13 -5.7 -21.4 -8.2 -1.9 -0.5 -1.6 -2.5 1.7 -16.1 4.6 -18.6 13.3 -44.1 22.3 -64.8 7.8 -18.1 23.3 -46.9 24.7 -46 0.5 0.3 1.2 0 1.6 -0.6 0.4 -0.8 0.3 -0.9 -0.4 -0.5 -2.6 1.6 -0.8 -1.7 8.6 -16 15.9 -24.1 33.5 -46.5 49.6 -63.1 4.3 -4.5 8.3 -8 8.7 -7.7 0.5 0.3 0.6 -0.1 0.3 -0.9 -0.6 -1.7 15.4 -17 16.9 -16 0.5 0.3 0.7 0.2 0.4 -0.4 -1.5 -2.3 37.8 -32.3 40.3 -30.8 0.6 0.4 0.9 0.2 0.8 -0.4 -0.2 -0.6 2.8 -2.9 6.7 -5.1 5.6 -3.1 7.2 -3.6 8.4 -2.7 1.2 1 1.4 0.9 0.9 -0.4 -0.5 -1.3 0.9 -2.4 6.4 -4.8 3.9 -1.8 7.5 -3 8.2 -2.8 0.6 0.2 1.6 -0.2 2.3 -0.9 1.7 -1.6 11.4 -3.6 15.8 -3.3 1.9 0.2 3.7 0.1 4 -0.2 0.8 -0.8 9.7 0.9 10.8 2 2.7 2.7 -0.1 13.9 -4.8 19.6 -0.9 1.1 -1.4 1.4 -1 0.8 0.3 -0.7 0.1 -1.3 -0.5 -1.3 -0.7 0 -0.9 0.7 -0.6 1.6 0.7 1.9 -6.2 11.6 -7.6 10.8 -0.5 -0.3 -0.7 -0.1 -0.6 0.5 0.4 1.5 -14.5 20 -15.6 19.3 -0.5 -0.3 -0.6 0 -0.2 0.6 0.3 0.6 -1 2.7 -2.9 4.8 -1.9 2 -3.5 3.9 -3.5 4.1 0 1.2 -8.3 10.8 -9.2 10.5 -0.5 -0.1 -0.7 0.1 -0.5 0.6 0.3 0.4 -0.4 1.9 -1.5 3.2 -1.1 1.4 -1.6 1.9 -1.2 1.1 0.4 -0.9 0.3 -1.2 -0.4 -0.7 -0.6 0.4 -0.9 1.2 -0.7 1.9 0.3 0.7 -0.5 2.3 -1.6 3.7 -1.1 1.4 -1.8 1.9 -1.4 1.3 0.3 -0.7 0.1 -1.3 -0.4 -1.3 -0.6 0 -1.1 1.1 -1.1 2.4 0 1.3 -1.3 3.8 -2.9 5.5 -1.7 1.8 -3.1 3.5 -3.3 3.9 -0.2 0.4 -0.6 0.6 -0.9 0.5 -0.3 -0.1 -0.6 0.4 -0.6 1.1 0 2.1 -5.7 10.6 -7 10.6 -0.7 0 -1.3 0.9 -1.3 2 0 1.1 -1 3.7 -2.3 5.8 -1.3 2 -4.5 7.9 -7.2 13 -2.7 5 -5.2 9.2 -5.7 9.2 -0.4 0 -0.8 0.9 -0.8 2 0 3.3 -4.3 11.2 -5.3 9.7 -0.5 -0.8 -0.6 -0.4 -0.2 0.9 0.8 3 -0.4 6 -1.7 4.2 -0.8 -1 -0.9 -0.9 -0.4 0.4 0.7 2.3 -5.5 18.8 -7.1 18.8 -0.7 0 -1.3 0.5 -1.3 1.1 0 0.5 0.5 0.7 1.1 0.3 0.8 -0.5 0.8 -0.1 0 1.4 -0.6 1.1 -1.1 3 -1.1 4.2 0 1.3 -0.4 1.9 -1.2 1.4 -0.7 -0.4 -0.8 -0.3 -0.4 0.4 1 1.6 -4.5 18.2 -5.7 17.5 -0.6 -0.3 -0.7 -0.1 -0.3 0.6 0.4 0.6 -0.2 4.1 -1.4 7.7 -1.7 4.9 -2.5 6.3 -3.2 5.3 -0.7 -1 -0.8 -0.9 -0.4 0.5 0.4 1 0.1 3.5 -0.5 5.4 -0.9 2.6 -1.4 3.1 -2.1 2.1 -0.8 -1.1 -0.9 -1 -0.4 0.4 0.7 2.3 -2.3 9.9 -3.7 9 -0.6 -0.3 -0.7 -0.1 -0.3 0.5 0.4 0.6 -0.2 3 -1.2 5.3 -1.3 2.8 -2.2 3.7 -2.6 2.8 -0.3 -0.8 -0.4 -0.5 -0.1 0.6 0.5 2.2 -8.4 19 -11.3 21.3 -0.9 0.6 -1.3 1.2 -0.9 1.2 1 0 -5 9.4 -12.9 20.3 -8 11 -21.2 26.7 -22.5 26.7 -0.5 0 -0.9 0.6 -0.9 1.3 0 1.3 -6 7.7 -7.3 7.7 -0.4 0 -2.4 -1.7 -4.5 -3.8z"/>
 </g>
</svg>